<?xml version="1.0" encoding="utf-8"?>
<!-- Generator: Adobe Illustrator 26.0.1, SVG Export Plug-In . SVG Version: 6.00 Build 0)  -->
<svg version="1.1" id="Layer_1" xmlns="http://www.w3.org/2000/svg" xmlns:xlink="http://www.w3.org/1999/xlink" x="0px" y="0px"
	 viewBox="0 0 52 54.7" style="enable-background:new 0 0 52 54.7;" xml:space="preserve">
<style type="text/css">
	.st0{fill:#C9B14F;}
</style>
<path class="st0" d="M52,21.5c0-0.4-0.1-0.8-0.5-1l-8.6-6.8V8.5c0-1.4-1.2-2.6-2.6-2.6H33L26.8,1c-0.5-0.4-1.2-0.4-1.6,0l-6.4,4.9
	h-7.2c-1.4,0-2.6,1.2-2.6,2.6v4.9l0,0l-8.6,6.6c-0.4,0.1-0.5,0.5-0.5,1c0,0.1,0,0.3,0.1,0.4H0v31.2C0,53.5,0.5,54,1.3,54h1.3h46.8
	h1.3c0.8,0,1.3-0.5,1.3-1.3V21.5L52,21.5z M49.4,51L30.2,36.1L42.9,28l0,0l0,0l6.5-4.2V51z M48.5,21.4l-5.6,3.5V17L48.5,21.4z
	 M26,3.7l2.9,2.2h-5.7L26,3.7z M40.3,8.5v18.1L28,34.4l-1.2-0.9c-0.5-0.4-1.2-0.4-1.6,0l-1,0.8l-12.5-8.1V8.5H40.3z M2.6,23.5
	L22,36.1L2.6,51V23.5z M9.1,16.7v7.9L3.5,21L9.1,16.7z M6.4,51.4L26,36.2l19.6,15.2H6.4z"/>
<rect x="18.2" y="14.4" class="st0" width="15.6" height="2.6"/>
<rect x="18.2" y="20.9" class="st0" width="15.6" height="2.6"/>
<rect x="18.2" y="27.4" class="st0" width="15.6" height="2.6"/>
</svg>
