<svg viewBox="0 0 24 24" xmlns="http://www.w3.org/2000/svg" fill="#C9B14F">
<path d="M11.9606 11.941C15.6987 11.941 18.8905 12.5327 18.8905 14.9007C18.8905 17.2677 15.7191 17.881 11.9606 17.881C8.22249 17.881 5.03069 17.2892 5.03069 14.9222C5.03069 12.5543 8.20201 11.941 11.9606 11.941ZM17.9373 10.5151C19.3664 10.4886 20.9028 10.6846 21.4705 10.8237C22.6733 11.0598 23.4644 11.5418 23.7922 12.2423C24.0692 12.8174 24.0692 13.4846 23.7922 14.0587C23.2908 15.1452 21.6744 15.494 21.0462 15.5841C20.9165 15.6037 20.8121 15.4911 20.8257 15.3608C21.1467 12.3501 18.5938 10.9227 17.9334 10.5945C17.9051 10.5798 17.8993 10.5572 17.9022 10.5435C17.9041 10.5337 17.9158 10.518 17.9373 10.5151ZM5.82652 10.5131L6.09563 10.5155C6.11709 10.5184 6.12782 10.5341 6.12977 10.5429C6.1327 10.5576 6.12685 10.5792 6.09953 10.5948C5.43815 10.923 2.88529 12.3505 3.20623 15.3602C3.21989 15.4915 3.11648 15.6031 2.98674 15.5845C2.35853 15.4944 0.74214 15.1456 0.240738 14.0591C-0.0372771 13.484 -0.0372771 12.8178 0.240738 12.2427C0.568503 11.5422 1.35865 11.0602 2.56143 10.8231C3.13014 10.685 4.66556 10.489 6.09563 10.5155L5.82652 10.5131ZM11.9606 0.475586C14.5056 0.475586 16.5464 2.52319 16.5464 5.08024C16.5464 7.63631 14.5056 9.68587 11.9606 9.68587C9.41552 9.68587 7.37479 7.63631 7.37479 5.08024C7.37479 2.52319 9.41552 0.475586 11.9606 0.475586ZM18.1861 1.24349C20.6443 1.24349 22.5748 3.56638 21.9173 6.15381C21.4735 7.89574 19.8668 9.05278 18.0768 9.00575C17.8973 9.00085 17.7207 8.9842 17.55 8.95481C17.4262 8.93325 17.3637 8.79315 17.434 8.6893C18.1168 7.6802 18.506 6.46634 18.506 5.16332C18.506 3.80348 18.0807 2.53573 17.3423 1.49625C17.3188 1.46392 17.3013 1.41396 17.3247 1.37673C17.3442 1.34635 17.3803 1.33068 17.4144 1.32284C17.6632 1.2719 17.9188 1.24349 18.1861 1.24349ZM5.84542 1.24339C6.1127 1.24339 6.36828 1.2718 6.61801 1.32274C6.65117 1.33058 6.68824 1.34724 6.70775 1.37663C6.73019 1.41386 6.71361 1.46382 6.69019 1.49615C5.95175 2.53563 5.52643 3.80338 5.52643 5.16322C5.52643 6.46624 5.91565 7.6801 6.5985 8.68921C6.66873 8.79306 6.6063 8.93315 6.48241 8.95471C6.31073 8.98508 6.13514 9.00075 5.95565 9.00565C4.16562 9.05268 2.55899 7.89564 2.11514 6.15371C1.45669 3.56629 3.38718 1.24339 5.84542 1.24339Z"></path>
</svg>