<?xml version="1.0" encoding="utf-8"?>
<!-- Generator: Adobe Illustrator 24.0.0, SVG Export Plug-In . SVG Version: 6.00 Build 0)  -->
<svg version="1.1" id="Layer_1" xmlns="http://www.w3.org/2000/svg" xmlns:xlink="http://www.w3.org/1999/xlink" x="0px" y="0px"
	 viewBox="0 0 48 48" style="enable-background:new 0 0 48 48;" xml:space="preserve">
<path d="M24,35.7c-1,0-1.9-0.2-2.9-0.5l-6.1-2L0.9,38c-1.2,0.4-1.2,2.2,0,2.6l21.2,7.1c0.6,0.2,1.3,0.3,1.9,0.3s1.3-0.1,1.9-0.3
	l21.2-7.1c1.2-0.4,1.2-2.2,0-2.6l-14.1-4.7l-6.1,2C25.9,35.6,25,35.7,24,35.7z"/>
<path d="M47.1,22.7L32.9,18l-6.1,2c-0.9,0.3-1.9,0.5-2.9,0.5c-1,0-1.9-0.2-2.9-0.5l-6.1-2L0.9,22.7c-1.2,0.4-1.2,2.2,0,2.6L15.1,30
	l2.4,0.8l2.4,0.8l2.3,0.8c0.6,0.2,1.3,0.3,1.9,0.3s1.3-0.1,1.9-0.3l2.3-0.8l2.4-0.8l2.4-0.8l14.1-4.7C48.3,24.9,48.3,23.1,47.1,22.7
	z"/>
<path d="M47.1,7.4L25.9,0.3C25.3,0.1,24.6,0,24,0s-1.3,0.1-1.9,0.3L0.9,7.4c-1.2,0.4-1.2,2.2,0,2.6l14.1,4.7l2.4,0.8l2.4,0.8
	l2.3,0.8c0.6,0.2,1.3,0.3,1.9,0.3s1.3-0.1,1.9-0.3l2.3-0.8l2.4-0.8l2.4-0.8L47.1,10C48.3,9.6,48.3,7.8,47.1,7.4z"/>
</svg>
