<?xml version="1.0" encoding="utf-8"?>
<!-- Generator: Adobe Illustrator 24.0.0, SVG Export Plug-In . SVG Version: 6.00 Build 0)  -->
<svg version="1.1" id="Layer_1" xmlns="http://www.w3.org/2000/svg" xmlns:xlink="http://www.w3.org/1999/xlink" x="0px" y="0px"
	 viewBox="0 0 700 700" style="enable-background:new 0 0 700 700;" xml:space="preserve">
<style type="text/css">
	.st0{fill:#FFFFFF;}
</style>
<path class="st0" d="M688.2,564.1H673L660.5,460c1.6-3.2,2.5-6.7,2.6-10.3c-0.1-2.2-0.3-4.4-0.6-6.6l25.7-265.8
	c0.7-6.9-4.4-13.1-11.3-13.7c-6.9-0.7-13.1,4.4-13.7,11.3L640.6,409c-7.7-5-16.6-7.6-25.8-7.6h-78.6c-12.8,0-25.1,5.1-34.2,14.2
	s-14.2,21.4-14.2,34.2c0,3.7,0.8,7.4,2.3,10.8c-1.3,2.6-2.1,5.3-2.5,8.1l-10.9,95.5h-48.1c5-5.6,8-12.8,8.3-20.3
	c0-3.3-1.3-6.5-3.7-8.9c-2.3-2.3-5.5-3.7-8.9-3.7c-6.9,0-12.5,5.6-12.5,12.5c-0.1,1.4-0.6,2.8-1.5,3.9c-0.8,0.5-1.8,0.7-2.8,0.6
	c-6,0-9.3-15.4-11.8-26.5l-0.6-2.9c-2.4-10.9-9.6-20.1-19.7-25c-3.9-2.5-8.3-4.1-12.9-4.9V376.3h212.8c3.8,0.1,7.4-1.6,9.9-4.5
	c2.4-2.9,3.4-6.8,2.7-10.5l-25-125.2c-1.2-5.9-6.5-10.1-12.5-10h-43.8v-37.6c10.3-3.6,19.2-10.4,25.4-19.4s9.4-19.7,9-30.7
	c0-11.1-3.2-21.9-9.4-31.1c-2.3-3.4-6.2-5.5-10.4-5.5H467c-4.2,0-8.1,2.1-10.4,5.5c-6.2,9.2-9.4,20-9.4,31.1
	c-0.3,10.9,2.8,21.7,9,30.7s15.1,15.8,25.4,19.4v37.6h-31.3c0-44.6-38.3-81.5-87.6-86.9v-25.8c0-6.9-5.6-12.5-12.5-12.5
	s-12.5,5.6-12.5,12.5v25.8c-49.3,5.4-87.6,42.3-87.6,86.9h-31.3v-37.6c10.3-3.6,19.2-10.4,25.4-19.4s9.4-19.7,9-30.7
	c0-11.1-3.2-21.9-9.4-31.1c-2.3-3.4-6.2-5.5-10.4-5.5H179c-4.2,0-8.1,2.1-10.4,5.5c-6.1,9.2-9.4,20-9.4,31.1
	c-0.3,10.9,2.8,21.7,9,30.7s15.1,15.8,25.4,19.4v37.6h-43.8c-6-0.1-11.3,4.1-12.5,10l-25,125.2c-0.8,3.7,0.2,7.6,2.7,10.5
	c2.4,2.9,6.1,4.6,9.9,4.5h212.8V489c-4.3,0.3-8.6,1.5-12.5,3.4c-10,4.9-17.3,14.1-19.7,25l-0.6,2.9c-2.4,11.1-5.8,26.4-11.8,26.5
	l0,0c-1,0.1-1.9-0.1-2.8-0.6c-0.9-1.1-1.4-2.5-1.5-3.9c0-3.3-1.3-6.5-3.7-8.9c-2.3-2.3-5.5-3.7-8.9-3.7c-6.9,0-12.5,5.6-12.5,12.5
	c-0.2,8,2.6,15.8,7.9,21.8h-48.1l-11.1-95.5c-0.4-2.8-1.2-5.6-2.5-8.1c1.6-3.4,2.4-7,2.5-10.8c0-12.8-5.1-25.1-14.2-34.2
	c-9.1-9.1-21.4-14.2-34.2-14.2H85.5c-9.2,0-18.1,2.7-25.8,7.6L37.2,174.9c-0.7-6.9-6.8-12-13.7-11.3s-12,6.8-11.3,13.7l25,265.8
	c-0.4,2.2-0.6,4.4-0.6,6.6c0,3.5,0.7,7,2.1,10.3L26.2,563.9h-14c-6.9,0-12.5,5.6-12.5,12.5s5.6,12.5,12.5,12.5h676.1
	c6.2-0.9,10.8-6.2,10.8-12.4C699,570.3,694.4,565,688.2,564.1L688.2,564.1z M474.5,126.9h39.3c1.5,3.7,2.2,7.6,2.3,11.5
	c0.6,6.5-1.4,12.9-5.5,17.9c-4.1,5-10,8.3-16.4,9.1c-6.4-0.8-12.3-4-16.4-9.1c-4.1-5-6.1-11.5-5.5-17.9
	C472.3,134.5,473,130.6,474.5,126.9z M186.5,126.9h39.3c1.5,3.7,2.2,7.6,2.3,11.5c0.6,6.5-1.4,12.9-5.5,17.9s-10,8.3-16.4,9.1
	c-6.4-0.8-12.3-4-16.4-9.1c-4.1-5-6.1-11.5-5.5-17.9C184.3,134.5,185.1,130.6,186.5,126.9L186.5,126.9z M350.2,163.5
	c41.4,0,75.1,28,75.1,62.6H275.1C275.1,191.7,308.7,163.5,350.2,163.5z M273.8,351.3c9.2-18.5,15.4-38.3,18.4-58.7
	c1-6.9-3.7-13.4-10.6-14.4s-13.4,3.7-14.4,10.6c-3,22.2-10.6,43.5-22.3,62.6h-55.6c9.2-18.5,15.4-38.3,18.4-58.7
	c1-6.9-3.7-13.4-10.6-14.4c-6.9-1-13.4,3.7-14.4,10.6c-3,22.2-10.6,43.5-22.3,62.6h-20.3l20-100.2h380.1l20,100.2h-20.5
	c-11.7-19.1-19.3-40.4-22.3-62.6c-1-6.9-7.5-11.7-14.4-10.6c-6.9,1-11.7,7.5-10.6,14.4c3.1,20.4,9.4,40.2,18.7,58.6h-55.8
	c-11.7-19.1-19.3-40.4-22.3-62.6c-1-6.9-7.5-11.7-14.4-10.6c-6.9,1-11.7,7.5-10.6,14.4c3,20.5,9.3,40.4,18.7,58.8L273.8,351.3z
	 M536.7,426.4h78.7c5.1,0,10.1,1.7,14.2,4.9c4.1,3.1,7,7.5,8.3,12.5v2.6h-125c0.8-5.6,3.6-10.7,7.8-14.4c4.3-3.7,9.8-5.7,15.4-5.6
	H536.7z M512.6,476.5h125.6l10.1,87.6H501.9L512.6,476.5z M365.1,515.4c3.1,1.8,5.2,4.9,5.8,8.4v2.9c1.8,13.7,7.2,26.6,15.6,37.6
	h-23.8V514C363.6,514.4,364.4,514.8,365.1,515.4L365.1,515.4z M328.9,526.6v-2.9c0.5-3.5,2.7-6.6,5.8-8.4c0.9-0.6,1.9-1,3-1.3v50.1
	h-24.3C321.8,553.2,327.1,540.2,328.9,526.6z M85.5,426.4h78.7c5.6-0.1,11.1,2,15.4,5.6c4.3,3.7,7,8.8,7.8,14.4H63.3v-2.6
	c1.3-4.9,4.1-9.3,8.1-12.5C75.5,428.2,80.4,426.5,85.5,426.4L85.5,426.4z M62.2,476.5h125.7l10.1,87.6H52.5L62.2,476.5z"/>
</svg>
